<?xml version="1.0" encoding="iso-8859-1"?>
<!-- Generator: Adobe Illustrator 16.0.0, SVG Export Plug-In . SVG Version: 6.00 Build 0)  -->
<!DOCTYPE svg PUBLIC "-//W3C//DTD SVG 1.1//EN" "http://www.w3.org/Graphics/SVG/1.1/DTD/svg11.dtd">
<svg version="1.1" id="Capa_1" xmlns="http://www.w3.org/2000/svg" xmlns:xlink="http://www.w3.org/1999/xlink" x="0px" y="0px"
	 width="612px" height="612px" viewBox="0 0 612 612" style="enable-background:new 0 0 612 612;" xml:space="preserve">
<g>
	<g id="Location">
		<g>
			<path d="M573.75,0c-6.521,0-12.661,1.625-18.035,4.514l-535.5,286.875C8.186,297.833,0,310.514,0,325.125
				c0,21.133,17.136,38.25,38.25,38.25h210.375V573.75c0,21.114,17.136,38.25,38.25,38.25c14.592,0,27.291-8.186,33.736-20.234
				l286.875-535.5C610.374,50.911,612,44.771,612,38.25C612,17.117,594.864,0,573.75,0z M306,497.556V344.25
				c0-21.133-17.117-38.25-38.25-38.25H114.444L527.027,84.972L306,497.556z"/>
		</g>
	</g>
</g>
<g>
</g>
<g>
</g>
<g>
</g>
<g>
</g>
<g>
</g>
<g>
</g>
<g>
</g>
<g>
</g>
<g>
</g>
<g>
</g>
<g>
</g>
<g>
</g>
<g>
</g>
<g>
</g>
<g>
</g>
</svg>
